# xmcd CD database file
#
# Track frame offsets:
#	150
#	37442
#	66137
#	90547
#	110425
#	128725
#	147645
#	173352
#
# Disc length: 2849 seconds
#
# Revision: 0
# Processed by: cddbd v1.5.2PL0 Copyright (c) Steve Scherf et al.
# Submitted via: CDex 1.51
#
DISCID=6f0b1f08
DTITLE=Reflections of nature  -  Angel´s Garden
DYEAR=1997
DGENRE=New Age
TTITLE0=Reverence
TTITLE1=Gentle Spirit
TTITLE2=Mystic Echo
TTITLE3=My Belowed
TTITLE4=Silent Conversation
TTITLE5=Angel´s Garden
TTITLE6=Contemplation
TTITLE7=Memories of Paradise
EXTD=YEAR: 1997
EXTT0=
EXTT1=
EXTT2=
EXTT3=
EXTT4=
EXTT5=
EXTT6=
EXTT7=
PLAYORDER=
